<?xml version="1.0" encoding="UTF-8"?>
<svg id="Layer_2" data-name="Layer 2" xmlns="http://www.w3.org/2000/svg" viewBox="0 0 189.91 167.22">
  <defs>
    <style>
      .cls-1 {
        fill: #10857c;
      }

      .cls-2 {
        fill: none;
        stroke: #13b5a3;
        stroke-linecap: round;
        stroke-miterlimit: 10;
        stroke-width: 6px;
      }

      .cls-3 {
        fill: #13b5a3;
      }
    </style>
  </defs>
  <g id="Layer_1-2" data-name="Layer 1">
    <g>
      <g>
        <path class="cls-1" d="M94.99,166.84c-.06.29-.12.58-.05.23-.2.29-.04.06.12-.17,0,0-.07-.06-.07-.06Z"/>
        <path class="cls-1" d="M96.18,157.75c3.04-2.49,5.93-5.2,9.15-7.43,15.04-10.37,31.75-16.83,49.67-19.95,7.61-1.32,15.38-1.69,23.06-2.56,1.88-.21,3.31.29,4.55,1.75,1.78,2.1,3.71,4.07,5.55,6.12.55.62,1.01,1.33,1.74,2.31-2.13,0-3.89.09-5.63-.01-29.99-1.77-58.43,3.61-84.88,18.27-1.04.57-2.17.98-3.25,1.47l.03.03Z"/>
        <path class="cls-1" d="M94.12,157.71c-.86-.34-1.77-.59-2.57-1.04-16.12-9.2-33.44-14.84-51.78-17.41-12.49-1.75-25.02-2.05-37.59-1.08-.59.05-1.18.07-2.18.12.55-.8.85-1.36,1.26-1.82,2.06-2.31,4.21-4.55,6.22-6.91.93-1.08,1.94-1.49,3.35-1.48,18.21.06,35.72,3.53,52.5,10.63,10.45,4.42,20.09,10.17,28.97,17.23.66.52,1.19,1.2,1.78,1.8l.04-.04Z"/>
        <path class="cls-1" d="M178.69,124.85c-1.12.06-2.57.2-4.01.22-18.13.3-35.5,4.14-51.94,11.75-9.08,4.2-17.57,9.45-24.94,16.34-.47.44-.99.82-1.74.97,1.42-1.8,2.76-3.67,4.28-5.39,8.99-10.13,19.73-17.83,32.12-23.29,10.78-4.75,22.04-7.72,33.66-9.48,2.59-.39,4.69,0,6.44,2.11,1.93,2.31,4.03,4.47,6.13,6.77Z"/>
        <path class="cls-1" d="M93.59,154.1c-3.04-2.39-6.01-4.87-9.14-7.14-13.37-9.72-28.34-15.76-44.43-19.22-8.18-1.76-16.46-2.58-24.83-2.7-1.1-.02-2.2-.2-3.37-.31,1.01-1.97,6.63-7.59,9.18-9.2,11.89,1.64,23.66,4.33,34.9,9.14,8.12,3.48,15.65,7.92,22.57,13.38,5.43,4.28,10.23,9.2,14.41,14.71.3.39.44.91.66,1.36l.03-.03Z"/>
        <path class="cls-1" d="M94.11,149.44c-2.13-2.35-4.23-4.74-6.41-7.05-11.68-12.41-25.93-20.64-42.17-25.45-6.17-1.83-12.48-3.18-19.06-4.83,3.65-3.99,8.17-6.81,12.32-10.07.17.11.34.21.52.32-.17,1.48-.35,2.95-.54,4.64,1.1.42,2.1.87,3.15,1.19,9,2.79,17.68,6.29,25.62,11.46,10.73,6.98,19.52,15.78,25.46,27.23.43.83.73,1.73,1.08,2.6l.03-.03Z"/>
        <path class="cls-1" d="M95.65,149.96c3.66-8,8.64-15.03,15.05-21.08,10.78-10.16,23.63-16.48,37.64-20.75.98-.3,1.95-.63,3.18-1.03-.22-1.68-.42-3.25-.69-5.34,4.68,3.33,8.89,6.58,13.25,10.43-2.52.56-4.58,1.05-6.65,1.46-14.16,2.79-27.44,7.83-39.64,15.62-7.1,4.53-13.13,10.28-18.61,16.63-1.17,1.36-2.38,2.68-3.58,4.02l.04.03Z"/>
        <path class="cls-1" d="M95.62,149.93c-.03.15-.07.29-.03.14-.08.13,0,0,.07-.11l-.04-.03Z"/>
        <path class="cls-1" d="M3.66,141.73c.03-.07.06-.14.09-.2-.04.06-.07.12-.11.18l.02.02Z"/>
        <path class="cls-1" d="M94.08,157.75c.07.04.15.08.22.11-.06-.05-.12-.1-.18-.15l-.04.04Z"/>
        <path class="cls-1" d="M96.16,157.72c-.06.08-.12.15-.1.12-.03.03.05-.03.13-.09l-.03-.03Z"/>
        <polygon class="cls-1" points="94.09 154.67 94.22 154.74 94.12 154.63 94.09 154.67"/>
        <path class="cls-1" d="M94.12,154.63c-.18-.18-.36-.35-.54-.53l-.03.03c.18.18.36.36.53.53l.04-.04Z"/>
        <path class="cls-1" d="M94.07,149.48c.06.02.11.05.17.07-.04-.04-.09-.07-.13-.11l-.03.03Z"/>
      </g>
      <g>
        <g>
          <path class="cls-3" d="M95.27,74.09v28.98c-2.97-4.26-6.96-7.78-11.63-10.15-3.19-1.64-6.68-2.73-10.39-3.19v-36.68c.31-.03.62-.03.94-.03,11.64,0,21.07,9.44,21.07,21.07Z"/>
          <path class="cls-1" d="M95.27,72.31v30.76c2.97-4.53,6.96-8.25,11.63-10.77,3.19-1.74,6.68-2.9,10.39-3.38v-38.93c-.31-.03-.62-.03-.94-.03-11.64,0-21.07,10.02-21.07,22.36Z"/>
        </g>
        <circle class="cls-1" cx="95.27" cy="43.81" r="9.3"/>
        <path class="cls-2" d="M49.32,99.85c.14-9.36.28-18.72.42-28.08.13-8.97-1.03-18.48,1.57-27.15,2.96-9.84,10.45-17.02,18.79-22.55,8.91-5.92,18.2-10,24.55-19.06"/>
        <path class="cls-2" d="M140.59,99.85c-.14-9.36-.28-18.72-.42-28.08-.13-8.97,1.03-18.48-1.57-27.15-2.96-9.84-10.45-17.02-18.79-22.55-8.91-5.92-18.2-10-24.55-19.06"/>
      </g>
    </g>
  </g>
</svg>